<?xml version="1.0" encoding="UTF-8" standalone="no"?>
<!DOCTYPE svg PUBLIC "-//W3C//DTD SVG 1.1//EN" "http://www.w3.org/Graphics/SVG/1.1/DTD/svg11.dtd">
<svg version="1.1" xmlns="http://www.w3.org/2000/svg" xmlns:xlink="http://www.w3.org/1999/xlink" preserveAspectRatio="xMidYMid meet" viewBox="0 0 751 138" width="751" height="138"><defs><path d="M162.13 134.32L170.13 134.32L178.12 134.32C178.12 117.69 178.12 108.45 178.12 106.6C178.12 91.41 178.79 76.76 179.59 73.96C183.72 59.03 202.37 51.17 213.3 59.83C220.89 65.83 221.43 68.23 221.83 102.61C221.86 104.72 222.04 115.29 222.36 134.32L230.22 134.32L238.08 134.32C238.08 118.49 238.08 109.7 238.08 107.94C237.95 67.43 235.68 56.1 225.69 48.51C217.43 42.24 201.97 41.04 192.11 45.98C189.98 47.04 185.85 50.11 183.18 52.77C182.85 53.09 181.16 54.69 178.12 57.57L178.12 29.99L178.12 2.4L170.13 2.4L162.13 2.4L162.13 68.36L162.13 134.32Z" id="a1h7OlyeOR"></path><path d="M492.59 134.32L499.92 134.32L507.25 134.32L507.25 68.36L507.25 2.4L499.92 2.4L492.59 2.4L492.59 68.36L492.59 134.32Z" id="a2GDBnwuJb"></path><path d="M262.2 10.26C259.94 15.73 263.13 21.86 268.86 23.06C278.46 25.19 284.99 12.53 277.26 6.53C273.53 3.6 269.4 3.07 265.93 5.07C264.73 5.73 263 8.13 262.2 10.26Z" id="b1ZDQQ6YhY"></path><path d="M106.83 23.32L106.43 34.12L106.03 45.04L98.84 45.04L91.51 45.04L91.51 51.7L91.51 58.37L98.84 58.37L106.17 58.37C106.17 72.92 106.17 81 106.17 82.62C106.3 119 107.9 126.46 116.96 133.25C121.22 136.45 132.02 137.65 139.21 135.79C139.58 135.68 141.45 135.15 144.81 134.19C144.81 130.19 144.81 127.97 144.81 127.52C144.81 121.53 144.54 120.86 142.54 121.79C136.55 124.33 130.68 123.93 126.69 120.6C126.43 120.37 125.14 119.26 122.82 117.26L122.42 87.82L122.02 58.37L133.35 58.37L144.81 58.37L144.81 51.7L144.81 45.04L133.48 45.04L122.16 45.04C122.16 37.05 122.16 32.61 122.16 31.72C122.16 24.39 121.76 18.39 121.22 18.53C120.56 18.53 117.22 19.59 113.49 20.92C112.61 21.24 110.38 22.04 106.83 23.32Z" id="aR3ItDzf"></path><path d="M47.19 43L48.15 43.07L49.12 43.16L50.08 43.27L51.03 43.41L51.99 43.57L52.93 43.76L53.87 43.97L54.8 44.2L55.73 44.45L56.65 44.73L57.55 45.02L58.45 45.34L59.34 45.69L60.21 46.05L61.07 46.44L61.92 46.84L62.76 47.27L63.58 47.72L64.39 48.19L65.18 48.68L65.95 49.18L66.71 49.71L67.45 50.26L68.17 50.83L68.87 51.42L69.55 52.02L70.21 52.65L70.85 53.29L71.46 53.96L72.05 54.64L72.5 55.16L72.93 55.69L73.35 56.22L73.75 56.76L74.15 57.3L74.53 57.85L74.9 58.41L75.26 58.97L75.61 59.54L75.95 60.12L76.28 60.71L76.6 61.31L76.9 61.92L77.2 62.54L77.48 63.16L77.76 63.8L78.03 64.45L78.28 65.11L78.53 65.78L78.77 66.46L78.99 67.16L79.21 67.87L79.42 68.59L79.62 69.32L79.82 70.07L80 70.84L80.17 71.62L80.34 72.41L80.5 73.22L80.65 74.05L80.8 74.89L80.93 75.75L81.06 76.63L81.19 77.52L81.3 78.44L81.41 79.37L81.51 80.32L81.61 81.29L81.7 82.28L81.78 83.29L82.58 94.34L19.15 94.34L20.09 99.81L20.17 100.3L20.27 100.8L20.37 101.3L20.48 101.8L20.6 102.3L20.74 102.81L20.88 103.32L21.02 103.82L21.18 104.33L21.34 104.84L21.51 105.35L21.69 105.86L21.88 106.36L22.07 106.86L22.27 107.36L22.47 107.86L22.68 108.35L22.9 108.84L23.12 109.32L23.35 109.8L23.58 110.27L23.82 110.74L24.06 111.2L24.31 111.65L24.56 112.09L24.81 112.52L25.07 112.95L25.33 113.36L25.59 113.77L25.86 114.16L26.13 114.54L26.4 114.92L26.67 115.27L26.94 115.62L27.22 115.95L27.5 116.27L27.78 116.58L28.05 116.87L28.33 117.14L28.61 117.4L29.31 118L30.06 118.57L30.84 119.11L31.66 119.62L32.52 120.09L33.41 120.53L34.34 120.94L35.29 121.32L36.28 121.67L37.29 121.98L38.32 122.26L39.38 122.51L40.46 122.73L41.56 122.92L42.67 123.07L43.8 123.2L44.95 123.29L46.1 123.35L47.26 123.38L48.43 123.38L49.61 123.34L50.79 123.28L51.97 123.18L53.15 123.06L54.33 122.9L55.51 122.71L56.68 122.49L57.84 122.24L58.99 121.96L60.13 121.65L61.26 121.31L62.37 120.94L63.46 120.53L64.53 120.1L65.58 119.64L66.61 119.14L67.62 118.62L68.59 118.06L69.54 117.48L70.45 116.86L70.59 116.76L70.73 116.65L70.88 116.54L71.02 116.44L71.16 116.33L71.3 116.23L71.44 116.14L71.58 116.04L71.71 115.94L71.85 115.85L71.99 115.76L72.12 115.67L72.26 115.58L72.39 115.5L72.52 115.42L72.65 115.34L72.77 115.26L72.9 115.19L73.02 115.12L73.14 115.05L73.25 114.98L73.36 114.92L73.47 114.86L73.58 114.8L73.69 114.75L73.78 114.7L73.88 114.65L73.97 114.6L74.06 114.56L74.15 114.52L74.23 114.49L74.3 114.46L74.37 114.43L74.44 114.4L74.5 114.38L74.55 114.36L74.6 114.35L74.65 114.34L74.69 114.33L74.72 114.33L74.75 114.34L74.78 114.36L74.81 114.39L74.84 114.43L74.87 114.48L74.9 114.55L74.93 114.62L74.95 114.71L74.98 114.81L75.01 114.92L75.04 115.04L75.07 115.16L75.09 115.3L75.12 115.45L75.15 115.6L75.17 115.77L75.2 115.94L75.22 116.13L75.24 116.32L75.27 116.51L75.29 116.72L75.31 116.93L75.33 117.16L75.35 117.38L75.37 117.62L75.39 117.86L75.4 118.11L75.42 118.36L75.44 118.62L75.45 118.89L75.46 119.16L75.47 119.43L75.48 119.71L75.49 120L75.5 120.29L75.51 120.58L75.51 120.88L75.51 121.18L75.52 121.49L75.52 121.79L75.52 129.12L67.92 132.59L67.13 132.92L66.32 133.24L65.5 133.55L64.65 133.84L63.79 134.12L62.92 134.39L62.03 134.64L61.13 134.88L60.21 135.11L59.29 135.33L58.35 135.53L57.41 135.71L56.45 135.88L55.49 136.04L54.52 136.19L53.55 136.32L52.57 136.44L51.59 136.54L50.6 136.63L49.62 136.7L48.63 136.76L47.64 136.81L46.66 136.84L45.67 136.86L44.69 136.86L43.72 136.85L42.75 136.82L41.78 136.78L40.82 136.72L39.87 136.65L38.93 136.57L38 136.47L37.08 136.35L36.17 136.22L35.27 136.08L34.39 135.92L33.52 135.74L32.67 135.55L31.83 135.34L31.01 135.12L30.17 134.86L29.33 134.57L28.49 134.26L27.67 133.93L26.85 133.58L26.05 133.2L25.25 132.8L24.46 132.38L23.68 131.94L22.91 131.48L22.15 131L21.4 130.5L20.66 129.97L19.93 129.43L19.22 128.87L18.52 128.29L17.83 127.69L17.15 127.08L16.49 126.44L15.84 125.79L15.2 125.12L14.58 124.44L13.98 123.74L13.39 123.02L12.81 122.29L12.26 121.54L11.71 120.78L11.19 120L10.68 119.21L10.19 118.4L9.72 117.59L9.27 116.75L8.84 115.91L8.42 115.05L8.03 114.18L7.65 113.3L7.3 112.41L6.96 111.51L6.65 110.59L6.36 109.67L5.87 108.01L5.42 106.34L5.02 104.67L4.66 102.99L4.35 101.32L4.09 99.64L3.88 97.97L3.71 96.3L3.59 94.63L3.51 92.96L3.47 91.31L3.48 89.66L3.53 88.02L3.63 86.38L3.77 84.76L3.96 83.16L4.18 81.56L4.45 79.98L4.76 78.42L5.11 76.87L5.5 75.35L5.94 73.84L6.41 72.35L6.93 70.89L7.48 69.45L8.08 68.04L8.71 66.65L9.38 65.29L10.09 63.96L10.84 62.65L11.63 61.38L12.45 60.15L13.31 58.94L14.21 57.77L15.14 56.64L16.11 55.55L17.12 54.49L18.16 53.48L19.24 52.5L20.35 51.57L20.78 51.23L21.2 50.89L21.61 50.57L22.01 50.26L22.41 49.96L22.81 49.67L23.2 49.39L23.59 49.12L23.97 48.85L24.35 48.6L24.73 48.36L25.11 48.12L25.48 47.89L25.86 47.67L26.24 47.46L26.61 47.25L26.99 47.05L27.37 46.86L27.76 46.67L28.15 46.49L28.54 46.32L28.94 46.15L29.34 45.98L29.74 45.82L30.16 45.67L30.58 45.52L31.01 45.37L31.44 45.23L31.89 45.09L32.34 44.96L32.81 44.82L33.28 44.69L33.77 44.57L34.27 44.44L34.78 44.32L35.3 44.19L35.84 44.07L36.39 43.95L36.96 43.83L37.54 43.71L38.49 43.52L39.45 43.36L40.41 43.23L41.37 43.12L42.34 43.04L43.31 42.98L44.28 42.95L45.25 42.94L46.22 42.96L47.19 43ZM41.7 56.3L40.9 56.36L40.13 56.45L39.4 56.57L38.72 56.72L38.07 56.9L37.03 57.26L36.01 57.68L35 58.15L34 58.68L33.03 59.26L32.08 59.88L31.15 60.55L30.25 61.27L29.38 62.03L28.53 62.83L27.7 63.67L26.91 64.55L26.16 65.46L25.43 66.41L24.74 67.38L24.09 68.39L23.47 69.43L22.9 70.49L22.36 71.57L21.87 72.68L21.42 73.81L21.02 74.95L20.66 76.11L20.35 77.29L19.55 81.02L66.59 81.02L65.79 76.49L65.64 75.62L65.47 74.76L65.27 73.9L65.05 73.04L64.8 72.2L64.53 71.36L64.24 70.53L63.92 69.71L63.59 68.91L63.24 68.13L62.88 67.36L62.49 66.61L62.09 65.89L61.68 65.18L61.25 64.51L60.82 63.86L60.37 63.23L59.91 62.64L59.44 62.08L58.96 61.56L58.48 61.07L57.99 60.62L57.49 60.2L57 59.83L56.45 59.47L55.85 59.13L55.2 58.8L54.5 58.49L53.76 58.19L52.99 57.91L52.18 57.65L51.35 57.42L50.49 57.2L49.62 57L48.73 56.82L47.83 56.67L46.93 56.54L46.03 56.43L45.14 56.35L44.25 56.3L43.38 56.27L42.53 56.27L41.7 56.3Z" id="a1suh5FBl4"></path><path d="M300.98 99.94C302.44 110.73 305.91 118.2 312.7 124.99C321.36 133.65 328.43 136.32 342.68 136.32C351.21 136.32 356.54 135.65 361.07 133.92C361.49 133.75 363.58 132.91 367.34 131.39L367.34 123.79L367.34 116.06C362.86 118.38 360.37 119.67 359.87 119.93C337.89 130.99 316.3 117 316.3 91.68C316.3 78.75 318.57 72.36 325.89 65.03C335.62 55.3 347.88 53.57 361.21 59.83C364.14 61.3 366.94 62.36 367.6 62.36C368.13 62.36 368.67 59.03 368.67 54.9C368.67 47.84 368.53 47.44 364.27 45.71C358.27 43.18 345.48 42.24 336.82 43.84C312.04 48.11 297.11 71.56 300.98 99.94Z" id="aEkC4dtQo"></path><path d="M429.18 42.98L430.32 43.03L431.45 43.11L432.59 43.21L433.72 43.34L434.84 43.49L435.95 43.67L437.06 43.87L438.15 44.09L439.24 44.34L440.32 44.61L441.38 44.91L442.43 45.23L443.47 45.57L444.5 45.93L445.51 46.32L446.5 46.73L447.48 47.16L448.43 47.61L449.37 48.08L450.29 48.58L451.19 49.09L452.07 49.63L452.93 50.19L453.76 50.77L454.57 51.37L455.35 51.99L456.11 52.63L456.84 53.29L457.55 53.97L458.08 54.51L458.6 55.05L459.1 55.59L459.59 56.13L460.07 56.68L460.54 57.23L460.99 57.78L461.43 58.33L461.86 58.88L462.27 59.45L462.68 60.01L463.07 60.58L463.45 61.16L463.82 61.74L464.17 62.33L464.52 62.93L464.85 63.53L465.17 64.15L465.49 64.77L465.79 65.4L466.08 66.04L466.36 66.69L466.64 67.35L466.9 68.02L467.15 68.7L467.4 69.39L467.63 70.1L467.86 70.82L468.07 71.55L468.28 72.3L468.48 73.06L468.67 73.83L468.86 74.62L469.03 75.43L469.2 76.25L469.36 77.09L469.52 77.95L469.66 78.82L469.8 79.71L469.94 80.62L470.15 82.36L470.32 84.1L470.44 85.83L470.51 87.54L470.54 89.24L470.52 90.93L470.45 92.61L470.34 94.27L470.19 95.91L469.99 97.54L469.74 99.14L469.46 100.73L469.12 102.3L468.75 103.85L468.34 105.37L467.88 106.87L467.38 108.35L466.84 109.8L466.26 111.22L465.64 112.62L464.98 113.98L464.28 115.32L463.55 116.63L462.77 117.9L461.96 119.14L461.11 120.35L460.22 121.53L459.3 122.66L458.34 123.76L457.35 124.82L456.32 125.85L455.25 126.83L454.15 127.77L453.02 128.67L451.86 129.53L450.66 130.34L449.43 131.1L448.17 131.82L446.88 132.5L445.55 133.12L444.79 133.45L443.99 133.77L443.16 134.06L442.3 134.34L441.41 134.61L440.5 134.85L439.56 135.08L438.6 135.3L437.62 135.49L436.62 135.67L435.6 135.83L434.57 135.97L433.53 136.1L432.47 136.21L431.4 136.31L430.32 136.38L429.24 136.44L428.15 136.48L427.06 136.51L425.97 136.52L424.87 136.51L423.78 136.48L422.69 136.44L421.61 136.38L420.53 136.31L419.46 136.21L418.4 136.1L417.36 135.97L416.33 135.83L415.31 135.67L414.31 135.49L413.33 135.3L412.37 135.08L411.43 134.85L410.52 134.61L409.63 134.34L408.77 134.06L407.94 133.77L407.14 133.45L406.38 133.12L404.09 132L401.92 130.73L399.86 129.32L397.92 127.79L396.08 126.13L394.36 124.36L392.75 122.48L391.25 120.5L389.87 118.42L388.59 116.27L387.44 114.03L386.39 111.72L385.46 109.36L384.64 106.93L383.94 104.46L383.35 101.94L382.88 99.4L382.52 96.82L382.27 94.23L382.14 91.63L382.13 89.02L382.23 86.42L382.44 83.83L382.78 81.26L383.22 78.71L383.79 76.19L384.47 73.72L385.26 71.3L386.18 68.93L387.21 66.62L388.36 64.38L389.62 62.22L391 60.15L392.5 58.17L394.12 56.29L395.85 54.51L397.71 52.85L399.68 51.32L401.77 49.91L403.98 48.64L404.2 48.53L404.44 48.42L404.68 48.3L404.94 48.18L405.2 48.06L405.47 47.94L405.75 47.82L406.04 47.7L406.33 47.57L406.63 47.45L406.94 47.32L407.25 47.19L407.57 47.06L407.89 46.94L408.22 46.81L408.55 46.68L408.88 46.55L409.22 46.43L409.56 46.3L409.91 46.18L410.25 46.05L410.6 45.93L410.95 45.81L411.3 45.69L411.65 45.57L412 45.45L412.35 45.34L412.69 45.22L413.04 45.11L413.39 45.01L413.73 44.9L414.07 44.8L414.4 44.7L414.74 44.6L415.07 44.51L415.39 44.42L415.71 44.34L416.03 44.26L416.33 44.18L416.64 44.11L417.76 43.87L418.89 43.66L420.02 43.48L421.16 43.33L422.3 43.2L423.45 43.1L424.59 43.02L425.74 42.97L426.89 42.95L428.03 42.95L429.18 42.98ZM424.18 56.38L423.04 56.5L421.92 56.67L420.81 56.87L419.71 57.12L418.62 57.41L417.55 57.74L416.5 58.1L415.47 58.51L414.46 58.96L413.47 59.44L412.5 59.96L411.55 60.52L410.64 61.12L409.74 61.76L408.88 62.43L408.05 63.13L407.24 63.87L406.48 64.65L405.74 65.46L405.04 66.3L404.37 67.18L403.75 68.1L403.16 69.04L402.62 70.02L402.11 71.03L401.5 72.39L400.95 73.78L400.44 75.18L399.98 76.6L399.58 78.04L399.22 79.49L398.91 80.95L398.65 82.42L398.44 83.89L398.28 85.37L398.17 86.85L398.1 88.33L398.08 89.81L398.1 91.28L398.17 92.75L398.28 94.2L398.44 95.65L398.65 97.08L398.89 98.49L399.18 99.89L399.51 101.26L399.89 102.62L400.3 103.95L400.76 105.25L401.26 106.52L401.8 107.76L402.38 108.97L402.99 110.14L403.65 111.28L404.34 112.37L405.08 113.43L405.84 114.43L406.65 115.4L407.49 116.31L408.37 117.17L409.29 117.98L410.24 118.73L411.22 119.43L412.24 120.06L412.73 120.33L413.24 120.59L413.77 120.84L414.32 121.08L414.89 121.31L415.46 121.52L416.06 121.73L416.67 121.92L417.29 122.1L417.92 122.27L418.56 122.42L419.22 122.57L419.88 122.7L420.55 122.82L421.23 122.93L421.91 123.03L422.6 123.12L423.29 123.19L423.98 123.25L424.68 123.3L425.38 123.34L426.08 123.36L426.77 123.37L427.47 123.37L428.16 123.36L428.85 123.33L429.54 123.29L430.21 123.24L430.89 123.17L431.55 123.09L432.21 123L432.85 122.9L433.49 122.78L434.11 122.65L434.72 122.51L435.32 122.35L435.9 122.18L436.47 121.99L437.02 121.79L437.92 121.44L438.8 121.06L439.65 120.66L440.47 120.24L441.27 119.8L442.04 119.34L442.79 118.85L443.51 118.35L444.21 117.82L444.88 117.28L445.53 116.71L446.16 116.12L446.76 115.5L447.33 114.87L447.89 114.21L448.42 113.52L448.92 112.82L449.4 112.09L449.86 111.34L450.3 110.56L450.71 109.76L451.1 108.93L451.47 108.09L451.81 107.21L452.13 106.31L452.43 105.39L452.71 104.44L452.96 103.47L453.2 102.47L453.41 101.44L453.6 100.39L453.77 99.31L453.91 98.21L454.04 97.08L454.14 95.92L454.22 94.73L454.29 93.52L454.33 92.28L454.35 91.01L454.35 89.75L454.33 88.52L454.29 87.3L454.23 86.11L454.16 84.94L454.06 83.8L453.94 82.67L453.81 81.57L453.66 80.5L453.48 79.45L453.29 78.42L453.08 77.41L452.85 76.43L452.6 75.47L452.34 74.53L452.05 73.62L451.74 72.73L451.42 71.86L451.08 71.02L450.72 70.2L450.34 69.41L449.94 68.64L449.52 67.9L449.09 67.17L448.63 66.48L448.16 65.8L447.67 65.16L447.16 64.53L446.63 63.93L446.08 63.36L445.52 62.81L444.94 62.28L444.34 61.78L443.72 61.31L443.08 60.85L442.43 60.43L441.76 60.03L441.06 59.65L440.36 59.3L439.22 58.79L438.08 58.33L436.93 57.92L435.78 57.55L434.62 57.23L433.45 56.96L432.29 56.73L431.12 56.55L429.95 56.41L428.79 56.32L427.63 56.27L426.47 56.26L425.32 56.3L424.18 56.38Z" id="a2zVSKuYw"></path><path d="M578.14 87.82C576.14 122.73 603.32 144.45 636.37 134.45C637 134.26 640.15 133.28 645.83 131.52C645.83 127.2 645.83 124.81 645.83 124.33C645.83 120.33 645.29 117 644.63 117C643.83 117 641.16 118.2 638.63 119.8C629.44 125.13 613.18 124.46 605.32 118.2C588.4 104.87 590.93 69.29 609.58 59.83C619.84 54.64 628.37 55.04 643.56 61.7C645.56 62.5 645.83 61.83 645.83 54.77C645.83 54.24 645.83 51.57 645.83 46.77C642.87 45.9 641.23 45.41 640.9 45.31C633.3 43.18 623.31 42.51 615.58 43.71C594.39 46.91 579.47 64.5 578.14 87.82Z" id="bodQx0AZn"></path><path d="M706.14 42.53L706.6 42.56L707.09 42.6L707.6 42.66L708.14 42.72L708.69 42.79L709.27 42.87L709.87 42.96L710.48 43.06L711.11 43.17L711.74 43.28L712.4 43.41L713.05 43.53L713.72 43.67L714.39 43.81L715.07 43.96L715.75 44.11L716.43 44.27L717.11 44.43L717.78 44.6L718.45 44.77L719.12 44.94L719.77 45.12L720.42 45.3L721.05 45.48L721.67 45.66L722.28 45.85L722.87 46.03L723.44 46.22L723.99 46.41L724.51 46.6L725.02 46.78L725.49 46.97L725.94 47.16L726.36 47.34L726.75 47.53L727.11 47.71L727.5 47.91L727.89 48.13L728.3 48.37L728.71 48.63L729.14 48.91L729.57 49.2L730.01 49.52L730.45 49.84L730.9 50.19L731.35 50.55L731.81 50.92L732.27 51.3L732.73 51.69L733.2 52.1L733.66 52.52L734.13 52.94L734.59 53.38L735.05 53.82L735.51 54.27L735.97 54.72L736.42 55.18L736.87 55.64L737.31 56.11L737.75 56.58L738.18 57.05L738.6 57.53L739.01 58L739.41 58.48L739.81 58.95L740.19 59.42L740.56 59.89L740.92 60.35L741.26 60.81L741.59 61.26L741.91 61.71L742.21 62.15L742.49 62.59L742.76 63.01L743 63.43L743.23 63.83L743.64 64.63L744.02 65.46L744.39 66.33L744.75 67.23L745.09 68.16L745.41 69.11L745.71 70.1L746 71.11L746.28 72.14L746.54 73.2L746.78 74.27L747 75.37L747.21 76.48L747.39 77.6L747.57 78.74L747.72 79.89L747.86 81.05L747.98 82.23L748.08 83.4L748.16 84.58L748.23 85.77L748.28 86.96L748.31 88.15L748.32 89.33L748.31 90.51L748.28 91.69L748.24 92.86L748.18 94.03L748.09 95.18L747.99 96.32L747.87 97.45L747.73 98.57L747.57 99.66L747.39 100.74L747.19 101.8L746.97 102.84L746.74 103.85L746.48 104.84L746.2 105.8L745.9 106.74L745.64 107.51L745.38 108.27L745.12 109.02L744.84 109.75L744.56 110.48L744.27 111.19L743.97 111.89L743.67 112.57L743.35 113.25L743.03 113.91L742.7 114.56L742.37 115.21L742.02 115.84L741.67 116.46L741.31 117.07L740.94 117.67L740.56 118.25L740.17 118.83L739.77 119.4L739.37 119.96L738.95 120.51L738.53 121.05L738.1 121.58L737.66 122.11L737.21 122.62L736.75 123.13L736.27 123.62L735.79 124.11L735.3 124.59L734.81 125.06L734.3 125.53L733.78 125.98L733.25 126.43L732.71 126.88L732.15 127.31L731.59 127.74L731.02 128.16L730.44 128.58L729.85 128.99L729.24 129.39L728.56 129.83L727.89 130.26L727.21 130.67L726.54 131.07L725.87 131.46L725.2 131.83L724.53 132.19L723.86 132.53L723.19 132.86L722.52 133.18L721.85 133.48L721.17 133.77L720.5 134.04L719.82 134.31L719.15 134.55L718.47 134.79L717.78 135.01L717.1 135.22L716.41 135.42L715.72 135.6L715.02 135.77L714.32 135.93L713.61 136.08L712.9 136.21L712.19 136.33L711.47 136.44L710.74 136.54L710 136.62L709.26 136.69L708.52 136.75L707.76 136.8L707 136.84L706.23 136.86L705.45 136.88L704.67 136.88L703.87 136.87L703.07 136.85L702.25 136.82L701.43 136.77L700.59 136.72L699.35 136.62L698.13 136.48L696.91 136.33L695.72 136.14L694.54 135.93L693.37 135.7L692.23 135.44L691.1 135.15L689.98 134.83L688.88 134.49L687.8 134.13L686.74 133.74L685.69 133.32L684.66 132.88L683.65 132.41L682.65 131.92L681.68 131.4L680.72 130.86L679.78 130.3L678.86 129.71L677.95 129.09L677.07 128.45L676.21 127.79L675.36 127.11L674.54 126.4L673.73 125.66L672.94 124.91L672.18 124.13L671.43 123.32L670.71 122.5L670 121.65L669.32 120.78L668.65 119.88L668.01 118.96L667.39 118.03L666.79 117.06L666.22 116.08L665.66 115.08L665.13 114.05L664.62 113L664.39 112.52L664.18 112.05L663.97 111.59L663.77 111.15L663.59 110.71L663.41 110.29L663.24 109.87L663.08 109.45L662.93 109.04L662.78 108.64L662.64 108.23L662.52 107.82L662.39 107.41L662.28 107L662.17 106.58L662.07 106.16L661.98 105.73L661.89 105.29L661.81 104.84L661.73 104.37L661.66 103.9L661.6 103.4L661.54 102.9L661.49 102.37L661.44 101.82L661.4 101.26L661.36 100.67L661.32 100.06L661.29 99.42L661.26 98.76L661.24 98.07L661.22 97.35L661.2 96.6L661.19 95.81L661.17 94.99L661.17 94.14L661.16 93.25L661.15 92.32L661.15 91.36L661.15 90.35L661.15 89.34L661.15 88.37L661.16 87.44L661.17 86.55L661.17 85.7L661.19 84.88L661.2 84.1L661.22 83.35L661.24 82.63L661.26 81.93L661.29 81.27L661.32 80.63L661.36 80.02L661.4 79.43L661.44 78.86L661.49 78.32L661.54 77.79L661.6 77.28L661.66 76.79L661.73 76.31L661.81 75.84L661.89 75.39L661.98 74.94L662.07 74.51L662.17 74.08L662.28 73.66L662.39 73.24L662.52 72.83L662.64 72.42L662.78 72L662.93 71.59L663.08 71.17L663.24 70.75L663.41 70.32L663.59 69.89L663.77 69.45L663.97 69L664.18 68.53L664.39 68.05L664.62 67.56L665.08 66.6L665.57 65.66L666.07 64.73L666.6 63.82L667.14 62.92L667.69 62.05L668.26 61.19L668.85 60.35L669.46 59.53L670.08 58.72L670.72 57.93L671.37 57.17L672.04 56.42L672.73 55.69L673.43 54.97L674.15 54.28L674.88 53.61L675.62 52.95L676.38 52.32L677.16 51.7L677.95 51.11L678.75 50.54L679.57 49.98L680.4 49.45L681.24 48.94L682.1 48.44L682.97 47.97L683.85 47.52L684.75 47.09L685.66 46.69L686.58 46.3L687.51 45.94L688.46 45.6L689.42 45.28L690.38 44.98L691.37 44.71L692.36 44.46L693.36 44.23L694.37 44.02L695.4 43.84L695.69 43.79L695.98 43.74L696.27 43.7L696.56 43.65L696.85 43.6L697.14 43.55L697.43 43.51L697.72 43.46L698.01 43.42L698.29 43.37L698.58 43.33L698.86 43.29L699.14 43.25L699.41 43.2L699.69 43.16L699.96 43.12L700.22 43.09L700.48 43.05L700.74 43.01L700.99 42.98L701.24 42.94L701.48 42.91L701.72 42.88L701.95 42.85L702.17 42.82L702.39 42.79L702.6 42.76L702.81 42.73L703 42.71L703.19 42.68L703.37 42.66L703.55 42.64L703.71 42.62L703.86 42.6L704.01 42.58L704.15 42.56L704.27 42.55L704.39 42.53L704.5 42.52L704.59 42.51L704.93 42.5L705.3 42.5L705.7 42.51L706.14 42.53ZM703.09 56.46L702.52 56.48L701.96 56.51L701.4 56.55L700.85 56.59L700.31 56.65L699.77 56.72L699.25 56.79L698.73 56.87L698.23 56.96L697.74 57.06L697.26 57.17L696.25 57.43L695.26 57.73L694.29 58.06L693.34 58.43L692.42 58.83L691.52 59.27L690.64 59.73L689.79 60.23L688.96 60.77L688.15 61.33L687.37 61.93L686.61 62.56L685.88 63.22L685.17 63.91L684.49 64.63L683.84 65.38L683.2 66.16L682.6 66.97L682.02 67.81L681.46 68.68L680.94 69.58L680.44 70.51L679.96 71.46L679.52 72.44L679.1 73.45L678.71 74.48L678.34 75.54L678.01 76.63L677.7 77.74L677.42 78.88L677.17 80.04L676.94 81.23L676.75 82.44L676.59 83.68L676.45 84.94L676.34 86.23L676.27 87.53L676.22 88.86L676.21 90.21L676.23 91.9L676.31 93.54L676.43 95.15L676.59 96.72L676.81 98.26L677.07 99.75L677.37 101.2L677.72 102.62L678.12 103.99L678.56 105.32L679.04 106.61L679.57 107.85L680.13 109.06L680.74 110.22L681.39 111.33L682.08 112.4L682.81 113.42L683.58 114.4L684.39 115.33L685.23 116.22L686.11 117.05L687.03 117.84L687.99 118.58L688.98 119.27L690.01 119.91L691.07 120.5L692.17 121.03L693.3 121.52L694.46 121.95L695.66 122.33L696.89 122.66L698.15 122.93L699.44 123.14L700.76 123.31L702.11 123.41L703.48 123.46L704.89 123.45L706.33 123.38L707.79 123.26L708.94 123.12L710.07 122.95L711.16 122.75L712.23 122.52L713.27 122.26L714.28 121.97L715.26 121.65L716.22 121.29L717.14 120.91L718.04 120.49L718.91 120.04L719.75 119.57L720.56 119.06L721.35 118.51L722.1 117.94L722.83 117.33L723.53 116.7L724.2 116.03L724.85 115.33L725.47 114.59L726.06 113.83L726.62 113.03L727.15 112.2L727.66 111.34L728.14 110.45L728.6 109.52L729.02 108.56L729.42 107.57L729.79 106.54L730.14 105.49L730.46 104.4L730.75 103.27L731.01 102.12L731.25 100.93L731.46 99.7L731.64 98.45L731.8 97.16L731.93 95.83L732.04 94.48L732.12 93.13L732.18 91.8L732.21 90.49L732.22 89.2L732.2 87.93L732.16 86.69L732.1 85.47L732.01 84.27L731.9 83.1L731.77 81.95L731.61 80.82L731.43 79.71L731.22 78.63L730.99 77.57L730.74 76.53L730.47 75.52L730.17 74.53L729.85 73.56L729.51 72.62L729.14 71.7L728.75 70.81L728.34 69.94L727.9 69.1L727.45 68.28L726.97 67.48L726.46 66.71L725.94 65.97L725.39 65.25L724.82 64.55L724.23 63.89L723.62 63.24L722.98 62.62L722.32 62.03L721.64 61.47L720.94 60.93L720.22 60.41L719.47 59.93L718.7 59.47L717.92 59.03L717.53 58.84L717.12 58.66L716.7 58.48L716.26 58.31L715.81 58.15L715.34 57.99L714.86 57.84L714.36 57.7L713.86 57.56L713.34 57.44L712.81 57.32L712.28 57.2L711.73 57.1L711.18 57L710.62 56.91L710.05 56.83L709.48 56.75L708.91 56.69L708.33 56.63L707.75 56.58L707.16 56.53L706.58 56.5L705.99 56.47L705.41 56.45L704.83 56.44L704.25 56.44L703.67 56.44L703.09 56.46Z" id="crapsOEXG"></path><path d="M263.4 134.32L270.73 134.32L278.06 134.32L278.06 89.68L278.06 45.04L270.73 45.04L263.4 45.04L263.4 89.68L263.4 134.32Z" id="hiqlaoIWc"></path><path d="M533.5 114.87C525.5 121.66 524.97 122.86 527.5 128.32C529.77 133.25 535.1 135.65 543.89 135.65C557.48 135.65 561.88 130.99 561.88 116.86C561.88 107.8 559.61 102.21 554.95 100.07C552.02 98.74 551.09 99.14 546.42 103.54C543.49 106.2 537.76 111.27 533.5 114.87Z" id="b1Zn81K4v"></path></defs><g><g><g><use xlink:href="#a1h7OlyeOR" opacity="1" fill="#000000" fill-opacity="1"></use><g><use xlink:href="#a1h7OlyeOR" opacity="1" fill-opacity="0" stroke="#000000" stroke-width="1" stroke-opacity="0"></use></g></g><g><use xlink:href="#a2GDBnwuJb" opacity="1" fill="#000000" fill-opacity="1"></use><g><use xlink:href="#a2GDBnwuJb" opacity="1" fill-opacity="0" stroke="#000000" stroke-width="1" stroke-opacity="0"></use></g></g><g><use xlink:href="#b1ZDQQ6YhY" opacity="1" fill="#000000" fill-opacity="1"></use><g><use xlink:href="#b1ZDQQ6YhY" opacity="1" fill-opacity="0" stroke="#000000" stroke-width="1" stroke-opacity="0"></use></g></g><g><use xlink:href="#aR3ItDzf" opacity="1" fill="#000000" fill-opacity="1"></use><g><use xlink:href="#aR3ItDzf" opacity="1" fill-opacity="0" stroke="#000000" stroke-width="1" stroke-opacity="0"></use></g></g><g><use xlink:href="#a1suh5FBl4" opacity="1" fill="#000000" fill-opacity="1"></use><g><use xlink:href="#a1suh5FBl4" opacity="1" fill-opacity="0" stroke="#000000" stroke-width="1" stroke-opacity="0"></use></g></g><g><use xlink:href="#aEkC4dtQo" opacity="1" fill="#000000" fill-opacity="1"></use><g><use xlink:href="#aEkC4dtQo" opacity="1" fill-opacity="0" stroke="#000000" stroke-width="1" stroke-opacity="0"></use></g></g><g><use xlink:href="#a2zVSKuYw" opacity="1" fill="#000000" fill-opacity="1"></use><g><use xlink:href="#a2zVSKuYw" opacity="1" fill-opacity="0" stroke="#000000" stroke-width="1" stroke-opacity="0"></use></g></g><g><use xlink:href="#bodQx0AZn" opacity="1" fill="#21d171" fill-opacity="1"></use><g><use xlink:href="#bodQx0AZn" opacity="1" fill-opacity="0" stroke="#000000" stroke-width="1" stroke-opacity="0"></use></g></g><g><use xlink:href="#crapsOEXG" opacity="1" fill="#21d171" fill-opacity="1"></use><g><use xlink:href="#crapsOEXG" opacity="1" fill-opacity="0" stroke="#000000" stroke-width="1" stroke-opacity="0"></use></g></g><g><use xlink:href="#hiqlaoIWc" opacity="1" fill="#000000" fill-opacity="1"></use><g><use xlink:href="#hiqlaoIWc" opacity="1" fill-opacity="0" stroke="#000000" stroke-width="1" stroke-opacity="0"></use></g></g><g><use xlink:href="#b1Zn81K4v" opacity="1" fill="#21d171" fill-opacity="1"></use><g><use xlink:href="#b1Zn81K4v" opacity="1" fill-opacity="0" stroke="#000000" stroke-width="1" stroke-opacity="0"></use></g></g></g></g></svg>