<!DOCTYPE svg PUBLIC "-//W3C//DTD SVG 20010904//EN" "http://www.w3.org/TR/2001/REC-SVG-20010904/DTD/svg10.dtd">
<svg version="1.0" xmlns="http://www.w3.org/2000/svg" width="272px" height="282px" viewBox="0 0 2720 2820" preserveAspectRatio="xMidYMid meet">
<g id="layer101" fill="#c5fe55" stroke="none">
 <path d="M2236 2042 c-3 -5 3 -17 13 -26 11 -10 22 -13 25 -8 3 5 -3 17 -13 26 -11 10 -22 13 -25 8z"/>
 <path d="M531 1986 c-9 -10 -9 -16 -1 -21 13 -8 42 14 34 26 -8 13 -20 11 -33 -5z"/>
 <path d="M2495 1591 c-3 -6 -4 -11 0 -11 3 0 1 -8 -4 -18 -7 -13 -4 -27 11 -51 27 -41 40 -28 36 35 -2 36 -7 50 -20 52 -9 2 -19 -2 -23 -7z"/>
 <path d="M2241 926 c-37 -38 -35 -58 6 -47 17 4 30 17 36 35 15 45 -5 50 -42 12z"/>
 <path d="M1976 643 c-3 -3 -6 -24 -6 -45 0 -21 -5 -47 -12 -57 -6 -10 -9 -25 -5 -34 13 -34 209 17 257 68 23 24 23 25 5 45 -24 26 -39 25 -58 -4 -9 -13 -30 -26 -48 -30 -32 -6 -40 -3 -100 43 -14 12 -29 18 -33 14z"/>
 </g>
<g id="layer102" fill="#066b00" stroke="none">
 <path d="M1520 2276 c-25 -8 -70 -23 -100 -35 -178 -66 -290 -101 -326 -101 -49 0 -203 -19 -224 -27 -8 -4 -18 -7 -22 -7 -13 -2 -9 -21 4 -21 7 0 12 -12 13 -27 0 -47 13 -51 122 -40 54 5 125 9 158 8 56 -1 60 1 63 22 3 20 7 22 34 17 18 -4 40 -2 54 5 19 11 27 10 49 -4 37 -24 149 -13 170 16 10 16 22 19 50 16 32 -4 38 -1 48 21 9 24 11 24 15 6 7 -34 19 -37 40 -11 14 19 21 22 25 12 7 -17 75 -34 107 -26 18 4 27 15 31 35 l6 30 4 -30 c5 -37 42 -43 47 -7 4 27 16 28 42 2 12 -12 25 -18 29 -15 5 2 12 -2 15 -11 9 -23 29 -5 23 22 -2 14 1 25 9 28 20 8 17 36 -3 42 -10 3 -52 19 -93 34 -106 40 -142 48 -250 54 -66 4 -109 1 -140 -8z"/>
 <path d="M422 1626 c-21 -36 -38 -42 -122 -48 -30 -3 -35 -7 -38 -31 -5 -40 14 -60 42 -45 11 6 50 19 86 28 49 13 68 23 77 41 18 34 16 53 -6 73 -18 16 -19 15 -39 -18z"/>
 </g>
<g id="layer103" fill="#33b400" stroke="none">
 <path d="M1992 2167 c-12 -13 -19 -27 -15 -32 11 -12 -19 5 -39 22 -25 22 -61 13 -69 -17 -6 -25 -6 -24 -10 5 -5 40 -43 43 -47 3 -2 -15 -10 -28 -20 -30 -26 -6 -73 9 -87 28 -14 20 -45 12 -45 -12 0 -13 -4 -11 -18 6 l-19 23 -21 -21 c-15 -15 -34 -22 -58 -22 -27 0 -37 -5 -41 -19 -4 -15 -18 -20 -70 -26 -49 -5 -68 -4 -74 6 -10 17 -57 23 -74 9 -7 -6 -27 -9 -46 -8 -26 2 -35 -2 -45 -20 -7 -14 -14 -19 -18 -13 -7 11 -33 10 -53 -2 -7 -5 -18 -5 -23 -2 -13 8 -202 -14 -213 -25 -5 -4 3 -17 18 -28 15 -12 30 -34 34 -49 7 -25 12 -28 46 -25 25 2 48 12 63 28 31 30 38 30 85 -2 26 -17 42 -22 50 -16 27 23 125 24 112 2 -13 -21 17 -17 71 9 36 18 67 42 79 61 18 29 23 31 60 25 22 -4 60 -6 85 -6 171 3 224 -1 236 -17 11 -15 14 -14 23 11 6 15 18 27 27 27 13 0 15 -7 10 -33 -7 -38 1 -52 21 -36 10 9 13 7 11 -11 -5 -36 22 -46 90 -32 82 17 123 15 152 -8 27 -21 65 -26 75 -10 17 27 71 -7 63 -39 -2 -5 6 -16 17 -24 14 -11 16 -18 9 -28 -6 -8 -10 -23 -10 -34 1 -14 -7 -22 -24 -25 -50 -10 -32 -70 21 -70 34 0 39 -24 9 -40 -19 -10 -23 -51 -7 -77 4 -6 -5 -22 -19 -36 -21 -21 -24 -29 -14 -46 7 -14 21 -21 40 -21 32 0 40 -14 14 -24 -20 -8 -9 -26 16 -26 27 0 15 -29 -17 -41 -20 -7 -24 -15 -21 -41 2 -24 9 -34 23 -36 40 -7 60 -63 31 -86 -7 -6 -17 -23 -20 -39 -8 -32 15 -47 40 -26 13 11 14 9 9 -12 -4 -18 0 -30 17 -46 37 -34 65 -38 81 -11 17 28 42 231 42 345 0 78 -1 83 -31 115 -18 18 -37 43 -43 56 -7 12 -16 20 -21 17 -15 -9 -40 25 -40 55 0 16 -8 35 -17 42 -27 20 -25 32 12 76 l35 40 -25 16 c-14 9 -25 14 -25 10 0 -4 -9 5 -21 20 -15 19 -18 30 -11 39 16 18 -156 186 -233 227 -33 18 -64 36 -69 41 -16 15 -31 10 -54 -14z"/>
 <path d="M759 2090 c-76 -23 -81 -27 -69 -51 9 -16 19 -19 61 -16 27 2 52 7 55 10 3 3 18 2 33 -3 36 -10 67 6 50 26 -6 8 -8 14 -5 14 4 0 2 8 -3 18 -13 24 -50 24 -122 2z"/>
 </g>
<g id="layer104" fill="#ffffcd" stroke="none">
 <path d="M1670 1670 c-14 -4 -60 -17 -104 -29 -96 -27 -131 -44 -152 -76 -15 -23 -15 -31 1 -101 9 -41 15 -77 13 -79 -1 -1 -27 -15 -57 -30 -29 -14 -85 -46 -124 -71 -52 -32 -82 -44 -110 -44 -67 0 -121 -41 -138 -103 -6 -22 -20 -47 -31 -57 -20 -16 -20 -16 17 -45 35 -26 40 -27 64 -14 14 8 34 30 43 49 24 50 32 56 75 63 21 4 65 23 98 43 98 60 128 74 143 62 6 -6 12 -16 12 -23 0 -29 47 -68 127 -106 47 -22 104 -57 127 -78 22 -20 58 -50 80 -65 21 -16 45 -45 54 -65 17 -41 36 -236 34 -355 -2 -69 1 -83 20 -103 56 -60 151 -46 189 29 23 45 14 53 -46 46 -35 -4 -45 7 -26 27 5 6 11 25 13 43 l3 34 39 -31 c33 -26 45 -31 70 -25 61 13 76 31 77 93 4 194 -2 171 62 245 66 78 73 112 30 146 -26 20 -26 22 -14 70 16 63 21 181 8 198 -6 7 -7 15 -4 18 19 20 -51 124 -83 124 -10 0 -35 12 -56 27 -48 32 -138 70 -202 84 -37 7 -61 22 -100 59 -43 43 -56 50 -89 49 -21 0 -49 -4 -63 -9z"/>
 </g>
<g id="layer105" fill="#44eb00" stroke="none">
 <path d="M603 2028 c-29 -16 -53 -34 -53 -39 0 -5 -6 -9 -14 -9 -20 0 -95 -85 -112 -127 -18 -41 -20 -141 -5 -156 6 -6 11 -18 11 -26 0 -8 7 -23 17 -33 13 -15 14 -24 6 -52 -11 -35 -2 -56 23 -56 12 0 44 -57 45 -82 0 -7 10 -34 22 -60 24 -51 161 -184 219 -214 18 -9 51 -33 73 -55 22 -21 58 -45 81 -53 39 -13 43 -13 67 7 14 12 31 41 37 65 13 52 55 82 115 82 30 0 58 11 112 44 39 25 98 59 131 75 33 17 63 35 67 41 3 6 -1 44 -10 84 -12 55 -14 79 -6 94 10 19 104 62 134 62 7 0 41 9 75 20 98 31 119 27 180 -29 42 -38 66 -52 115 -64 59 -14 120 -40 212 -89 22 -12 47 -24 55 -28 19 -9 43 -56 43 -87 0 -13 3 -25 6 -28 11 -6 4 -141 -10 -197 -13 -49 -13 -50 14 -70 29 -21 34 -50 15 -95 -6 -15 -10 -35 -9 -42 2 -13 0 -13 -13 -2 -14 12 -20 8 -17 -11 0 -4 -9 -10 -20 -13 -32 -11 -47 -61 -47 -162 l0 -92 34 -21 c18 -12 38 -19 44 -15 5 3 22 27 37 53 15 26 52 76 83 112 64 74 116 154 124 190 3 14 3 47 -2 74 -6 41 -12 52 -37 66 -27 15 -49 53 -28 49 21 -4 22 3 7 26 -15 24 -18 24 -39 11 -21 -14 -23 -14 -18 4 3 11 11 25 19 31 8 6 14 22 14 34 0 27 -36 75 -56 75 -22 0 -17 38 7 45 22 7 41 44 31 60 -4 6 -7 16 -8 23 -5 32 -15 42 -42 42 -41 0 -44 8 -15 46 14 19 22 34 18 34 -4 0 -2 7 5 15 11 14 7 19 -13 16 -12 -2 -3 21 16 41 10 11 17 29 15 41 -2 17 -11 23 -40 25 -45 4 -52 29 -10 34 23 3 27 8 27 33 0 17 4 36 9 43 5 8 4 18 -3 25 -14 14 -14 27 -1 27 6 0 10 -7 10 -15 0 -9 12 -20 26 -25 14 -6 22 -15 19 -20 -4 -6 -11 -8 -16 -5 -5 4 -11 -1 -14 -9 -3 -9 -8 -24 -12 -33 -12 -35 -11 -44 8 -56 11 -7 19 -23 19 -40 0 -27 38 -77 60 -77 5 0 10 -7 10 -15 0 -16 36 -39 49 -31 5 3 14 19 21 35 10 25 8 40 -15 108 -27 78 -56 126 -128 216 -41 50 -57 53 -57 9 l-1 -27 -15 28 c-15 27 -56 38 -69 17 -10 -16 -45 -11 -77 11 -31 22 -46 22 -180 3 -53 -7 -55 -6 -33 35 15 31 10 47 -11 30 -9 -7 -16 -3 -26 18 -11 22 -19 27 -38 24 -26 -4 -202 -12 -280 -12 -25 0 -66 3 -91 6 -45 7 -47 6 -69 -29 -34 -56 -95 -81 -137 -58 -23 13 -90 7 -110 -10 -8 -6 -24 -1 -50 16 -46 32 -48 32 -87 3 -17 -13 -43 -27 -57 -30 -22 -6 -28 -3 -33 17 -11 44 -108 106 -151 96 -35 -8 -95 -8 -100 0 -11 18 -49 10 -102 -22z"/>
 <path d="M2262 2007 c-9 -11 -5 -18 19 -36 42 -31 58 -13 21 22 -24 23 -31 25 -40 14z"/>
 </g>

</svg>